<svg xmlns="http://www.w3.org/2000/svg" width="51" height="56" fill="none" xmlns:v="https://vecta.io/nano"><path fill="#fff" d="M0 0h50v50H0z"/><g filter="url(#A)"><path d="M27.498 33.999a101.3 101.3 0 0 1-2.641-.028L22 34l.168-.153C10.715 33.009 16.533 28.395 9 12l4.332 1.14C12.951 11.839 12.511 10.461 12 9l7.643 2.643L19 8l4.622 2.954c2.724 5.293 1.245 11.245 2.243 17.118a13.95 13.95 0 0 0 .353-1.525c.831-5.702-.482-11.457 2.161-16.593L33 7l-.696 3.969L38 9a84.97 84.97 0 0 0-1.382 4.31L42 12c-8.113 16.333-1.901 20.974-14.096 21.837L28 34c-.17 0-.337 0-.502-.001z" fill="#ff5732"/><path d="M22 34c10.27-6.5 1.622-13.5 9.73-19.5L42 12c-9.189 18.5 0 22-20 22zm0 0c8.216-7.386 1.297-15.341 7.784-22.159L38 9c-7.351 21.023 0 25-16 25zm6 0c-8.216-7.386-1.297-15.341-7.784-22.159L12 9c7.351 21.023 0 25 16 25zm0 0c-4.622-7.682-.73-15.954-4.378-23.045L19 8c4.135 21.864 0 26 9 26zm-9.5-19.5c7.5 6-.5 13 9 19.5C9 34 17.5 30.5 9 12l9.5 2.5zm9.878-4.545C24.73 17.046 28.622 25.318 24 33c9 0 4.865-4.136 9-26l-4.622 2.955z" stroke="#ea2a00"/><path d="M5 29l20.5 4.5 20-4.5s-2.5 4-9 6-11-1.5-11-1.5-5 3.5-12 1.5S5 29 5 29z" fill="#219d0c"/><path d="M25.5 33.5L5 29s1.5 4 8.5 6 12-1.5 12-1.5zm0 0S30 37 36.5 35s9-6 9-6l-20 4.5zm0 0v14" stroke="#187401" stroke-linecap="round"/></g><defs><filter id="A" x=".209" y="5.955" width="50.35" height="50.045" filterUnits="userSpaceOnUse" color-interpolation-filters="sRGB"><feFlood flood-opacity="0" result="A"/><feColorMatrix in="SourceAlpha" values="0 0 0 0 0 0 0 0 0 0 0 0 0 0 0 0 0 0 127 0" result="B"/><feOffset dy="4"/><feGaussianBlur stdDeviation="2"/><feComposite in2="B" operator="out"/><feColorMatrix values="0 0 0 0 0 0 0 0 0 0 0 0 0 0 0 0 0 0 0.25 0"/><feBlend in2="A"/><feBlend in="SourceGraphic"/></filter></defs></svg>