<svg xmlns="http://www.w3.org/2000/svg" xmlns:xlink="http://www.w3.org/1999/xlink" width="50" height="50" fill="none" xmlns:v="https://vecta.io/nano"><path fill="#fff" d="M0 0h50v50H0z"/><g filter="url(#A)"><use xlink:href="#D" fill="#eb0101" fill-opacity=".88" shape-rendering="crispEdges"/><use xlink:href="#D" fill="url(#B)" fill-opacity=".8" shape-rendering="crispEdges"/><use xlink:href="#D" fill="url(#C)" fill-opacity=".3" shape-rendering="crispEdges"/></g><path d="M26.759 9c-1.549 2.062-1.999 3.566-2.5 6.5-.549-2.902-.582-4.395.5-6.5h2z" fill="#000" stroke="#000"/><defs><filter id="A" x="3" y="11.347" width="43.809" height="36.677" filterUnits="userSpaceOnUse" color-interpolation-filters="sRGB"><feFlood flood-opacity="0" result="A"/><feColorMatrix in="SourceAlpha" values="0 0 0 0 0 0 0 0 0 0 0 0 0 0 0 0 0 0 127 0" result="B"/><feOffset dy="4"/><feGaussianBlur stdDeviation="2"/><feComposite in2="B" operator="out"/><feColorMatrix values="0 0 0 0 0 0 0 0 0 0 0 0 0 0 0 0 0 0 0.25 0"/><feBlend in2="A"/><feBlend in="SourceGraphic"/></filter><radialGradient id="B" cx="0" cy="0" r="1" gradientUnits="userSpaceOnUse" gradientTransform="matrix(3.6739403974420594e-16,6,-15.6296,9.570369805976736e-16,24.3845,15)"><stop stop-color="#246626"/><stop offset=".208" stop-color="#009f06" stop-opacity=".92"/><stop offset=".656" stop-color="#00fa0a" stop-opacity=".22"/><stop offset="1" stop-color="#00fa0a" stop-opacity="0"/></radialGradient><radialGradient id="C" cx="0" cy="0" r="1" gradientUnits="userSpaceOnUse" gradientTransform="matrix(-15.499989268443626,-7.0001419584271645,8.740813686991455,-19.354252978074427,38.3845,31)"><stop stop-color="#faff00"/><stop offset="1" stop-color="#57581d" stop-opacity="0"/></radialGradient><path id="D" d="M7.885 17c2.732-7.219 15.914-4 15.914-4s16.932-5.866 18.586 4.5-1.5 22.5-10 22.5c-7.196 0-7.583-1.792-7.533-2.341-.158.483-1.081 1.927-6.467 2.341-9.61.739-13.232-15.781-10.5-23z"/></defs></svg>