<svg xmlns="http://www.w3.org/2000/svg" xmlns:xlink="http://www.w3.org/1999/xlink" width="50" height="50" fill="none" xmlns:v="https://vecta.io/nano"><g filter="url(#A)"><use xlink:href="#C" fill="#915636"/><use xlink:href="#C" fill="url(#B)"/><path d="M27 13.112c-4.562.577-12.629 13.346-9.5 16.5.535.539 1.409.879 2.5 1.047 5.295.817 15.683-2.408 17-6.547 1.588-4.992 1.846-12.087-10-11z" fill="#915636"/></g><defs><filter id="A" x="5" y="13" width="36.785" height="31.612" filterUnits="userSpaceOnUse" color-interpolation-filters="sRGB"><feFlood flood-opacity="0" result="A"/><feColorMatrix in="SourceAlpha" values="0 0 0 0 0 0 0 0 0 0 0 0 0 0 0 0 0 0 127 0" result="B"/><feOffset dy="4"/><feGaussianBlur stdDeviation="2"/><feComposite in2="B" operator="out"/><feColorMatrix values="0 0 0 0 0 0 0 0 0 0 0 0 0 0 0 0 0 0 0.25 0"/><feBlend in2="A"/><feBlend in="SourceGraphic"/></filter><linearGradient id="B" x1="19" y1="29.5" x2="9" y2="36.5" gradientUnits="userSpaceOnUse"><stop stop-color="#65ae07"/><stop offset=".516" stop-color="#f4d598"/></linearGradient><path id="C" d="M17.5 29.612c-2.673.576-3.704 1.15-4 3-.431 1.493-.914 2.016-2.5 2-1.244-.192-1.713.16-1.933 1.5H11.5c2.073-.443 2.863-1.08 4-2.5.548-1.872 1.783-2.37 4.5-2.953-1.091-.168-1.965-.508-2.5-1.047z"/></defs></svg>