<svg xmlns="http://www.w3.org/2000/svg" xmlns:xlink="http://www.w3.org/1999/xlink" width="50" height="50" fill="none" xmlns:v="https://vecta.io/nano"><path stroke="#008005" stroke-linecap="round" d="M24.5 21.02v20"/><use xlink:href="#F" fill="url(#B)"/><use xlink:href="#G" stroke="url(#C)"/><path d="M9 16.372c1.57 4.062 9 4.128 15 6.319 0-8.124-12.252-9.026-15-6.318z" fill="url(#D)"/><use xlink:href="#H" stroke="url(#E)"/><g filter="url(#A)"><path stroke="#008005" stroke-linecap="round" d="M24.5 21.02v20"/><use xlink:href="#F" fill="url(#B)"/><use xlink:href="#G" stroke="url(#C)"/><path d="M9 16.372c1.57 4.062 9 4.128 15 6.319 0-8.124-12.252-9.026-15-6.318z" fill="url(#D)"/><use xlink:href="#H" stroke="url(#E)"/></g><defs><filter id="A" x="4.415" y="9.441" width="42.458" height="40.079" filterUnits="userSpaceOnUse" color-interpolation-filters="sRGB"><feFlood flood-opacity="0" result="A"/><feColorMatrix in="SourceAlpha" values="0 0 0 0 0 0 0 0 0 0 0 0 0 0 0 0 0 0 127 0" result="B"/><feOffset dy="4"/><feGaussianBlur stdDeviation="2"/><feComposite in2="B" operator="out"/><feColorMatrix values="0 0 0 0 0 0 0 0 0 0 0 0 0 0 0 0 0 0 0.25 0"/><feBlend in2="A"/><feBlend in="SourceGraphic"/></filter><linearGradient id="B" x1="25" y1="20" x2="41.5" y2="11" gradientUnits="userSpaceOnUse"><stop offset=".147" stop-color="#0fae16"/><stop offset=".313" stop-color="#05b90d" stop-opacity=".806"/><stop offset=".462" stop-color="#02b009" stop-opacity=".631"/><stop offset="1" stop-color="#55e65b" stop-opacity=".44"/></linearGradient><linearGradient id="C" x1="25" y1="21" x2="42" y2="11" gradientUnits="userSpaceOnUse"><stop stop-color="#2e7331"/><stop offset="1" stop-color="#008005" stop-opacity="0"/></linearGradient><linearGradient id="D" x1="23.5" y1="22.5" x2="9.5" y2="16.5" gradientUnits="userSpaceOnUse"><stop offset=".245" stop-color="#05bc0c"/><stop offset=".506" stop-color="#2fdb37" stop-opacity=".878"/><stop offset="1" stop-color="#04da0d" stop-opacity=".62"/></linearGradient><linearGradient id="E" x1="24" y1="22.5" x2="9" y2="16" gradientUnits="userSpaceOnUse"><stop stop-color="#008005" stop-opacity=".67"/><stop offset=".33" stop-color="#008005" stop-opacity=".42"/><stop offset="1" stop-color="#008005" stop-opacity=".89"/></linearGradient><path id="F" d="M42.298 10.668c-1.188 4.779-14 11.975-17.597 10.211-3.903-9.236 13.63-12.558 17.597-10.211z"/><path id="G" d="M42.2978 10.6677C41.1096 15.4466 28.2978 22.6425 24.7004 20.8786M42.2978 10.6677C38.33 8.32104 20.7978 11.6425 24.7004 20.8786M42.2978 10.6677C33.7209 11.6705 26.2209 17.6705 24.7004 20.8786"/><path id="H" d="M9 16.3722C10.5704 20.4341 18 20.5 24 22.6907M9 16.3722C11.7482 13.6643 24 14.567 24 22.6907M9 16.3722C18.3955 17.8671 21.7605 19.2283 24 22.6907"/></defs></svg>