<svg xmlns="http://www.w3.org/2000/svg" width="50" height="52" fill="none" xmlns:v="https://vecta.io/nano"><path fill="#fff" d="M0 0h50v50H0z"/><g filter="url(#A)"><path d="M21.952 11.539v18.089c-7.89 7.797-2.459 13.234 3.223 13.37s10.322-6.598 3.223-13.37V11.539c0-4.719-6.447-4.719-6.447 0z" stroke="#858585"/><path d="M30.01 36.706c0 2.172-2.417 4.719-4.835 4.719-3.223 0-4.835-2.547-4.835-4.719s2.61-5.505 4.835-5.505l.114.003c2.199.11 4.721 3.368 4.721 5.502z" fill="#e90000"/><path d="M25.175 16.258v14.943" stroke="#e90000" stroke-linecap="round"/></g><defs><filter id="A" x="13.498" y="7.5" width="23.003" height="44" filterUnits="userSpaceOnUse" color-interpolation-filters="sRGB"><feFlood flood-opacity="0" result="A"/><feColorMatrix in="SourceAlpha" values="0 0 0 0 0 0 0 0 0 0 0 0 0 0 0 0 0 0 127 0" result="B"/><feOffset dy="4"/><feGaussianBlur stdDeviation="2"/><feComposite in2="B" operator="out"/><feColorMatrix values="0 0 0 0 0 0 0 0 0 0 0 0 0 0 0 0 0 0 0.25 0"/><feBlend in2="A"/><feBlend in="SourceGraphic"/></filter></defs></svg>